<?xml version="1.0" encoding="utf-8" standalone="no"?>
<!DOCTYPE svg PUBLIC "-//W3C//DTD SVG 1.1//EN"
  "http://www.w3.org/Graphics/SVG/1.1/DTD/svg11.dtd">
<svg xmlns:xlink="http://www.w3.org/1999/xlink" width="353.400945pt" height="258.06061pt" viewBox="0 0 353.400945 258.06061" xmlns="http://www.w3.org/2000/svg" version="1.1">
 <metadata>
  <rdf:RDF xmlns:dc="http://purl.org/dc/elements/1.1/" xmlns:cc="http://creativecommons.org/ns#" xmlns:rdf="http://www.w3.org/1999/02/22-rdf-syntax-ns#">
   <cc:Work>
    <dc:type rdf:resource="http://purl.org/dc/dcmitype/StillImage"/>
    <dc:date>2026-05-31T23:43:57.071069</dc:date>
    <dc:format>image/svg+xml</dc:format>
    <dc:creator>
     <cc:Agent>
      <dc:title>Matplotlib v3.10.8, https://matplotlib.org/</dc:title>
     </cc:Agent>
    </dc:creator>
   </cc:Work>
  </rdf:RDF>
 </metadata>
 <defs>
  <style type="text/css">*{stroke-linejoin: round; stroke-linecap: butt}</style>
 </defs>
 <g id="figure_1">
  <g id="patch_1">
   <path d="M 0 258.06061 
L 353.400945 258.06061 
L 353.400945 0 
L 0 0 
z
" style="fill: #ffffff"/>
  </g>
  <g id="axes_1">
   <g id="patch_2">
    <path d="M 49.855748 198.393449 
L 346.200945 198.393449 
L 346.200945 30.614173 
L 49.855748 30.614173 
z
" style="fill: #ffffff"/>
   </g>
   <g id="FillBetweenPolyCollection_1">
    <defs>
     <path id="m693f50692b" d="M 63.325984 -90.278809 
L 63.325984 -92.194243 
L 67.816063 -93.151959 
L 72.306142 -94.109676 
L 76.79622 -96.02511 
L 81.286299 -98.89826 
L 85.776378 -100.813693 
L 90.266457 -103.686843 
L 94.756535 -105.602277 
L 99.246614 -108.475427 
L 103.736693 -110.39086 
L 108.226772 -113.26401 
L 112.71685 -118.052594 
L 117.206929 -122.841177 
L 121.697008 -127.629761 
L 126.187087 -132.418344 
L 130.677165 -137.206928 
L 135.167244 -141.995511 
L 139.657323 -148.699528 
L 144.147402 -156.361262 
L 148.63748 -156.361262 
L 153.127559 -161.149845 
L 157.617638 -165.938429 
L 162.107717 -170.727012 
L 166.597795 -177.431029 
L 171.087874 -185.092763 
L 175.577953 -185.092763 
L 180.068031 -185.092763 
L 184.55811 -185.092763 
L 189.048189 -185.092763 
L 193.538268 -189.881346 
L 198.028346 -194.66993 
L 202.518425 -196.585363 
L 207.008504 -199.458513 
L 211.498583 -194.66993 
L 215.988661 -189.881346 
L 220.47874 -175.515596 
L 224.968819 -161.149845 
L 229.458898 -156.361262 
L 233.948976 -151.572678 
L 238.439055 -151.572678 
L 242.929134 -151.572678 
L 247.419213 -151.572678 
L 251.909291 -151.572678 
L 256.39937 -151.572678 
L 260.889449 -151.572678 
L 265.379528 -148.699528 
L 269.869606 -146.784095 
L 274.359685 -143.910945 
L 278.849764 -141.995511 
L 283.339843 -139.122361 
L 287.829921 -137.206928 
L 292.32 -134.333778 
L 296.810079 -132.418344 
L 301.300157 -129.545194 
L 305.790236 -127.629761 
L 310.280315 -122.841177 
L 314.770394 -118.052594 
L 319.260472 -115.179444 
L 323.750551 -113.26401 
L 328.24063 -105.602277 
L 332.730709 -98.89826 
L 332.730709 -90.278809 
L 332.730709 -90.278809 
L 328.24063 -96.982826 
L 323.750551 -103.686843 
L 319.260472 -110.39086 
L 314.770394 -118.052594 
L 310.280315 -122.841177 
L 305.790236 -127.629761 
L 301.300157 -129.545194 
L 296.810079 -132.418344 
L 292.32 -134.333778 
L 287.829921 -137.206928 
L 283.339843 -139.122361 
L 278.849764 -141.995511 
L 274.359685 -141.995511 
L 269.869606 -141.995511 
L 265.379528 -141.995511 
L 260.889449 -141.995511 
L 256.39937 -141.995511 
L 251.909291 -141.995511 
L 247.419213 -141.995511 
L 242.929134 -141.995511 
L 238.439055 -146.784095 
L 233.948976 -151.572678 
L 229.458898 -151.572678 
L 224.968819 -151.572678 
L 220.47874 -165.938429 
L 215.988661 -180.304179 
L 211.498583 -187.008196 
L 207.008504 -194.66993 
L 202.518425 -194.66993 
L 198.028346 -194.66993 
L 193.538268 -189.881346 
L 189.048189 -185.092763 
L 184.55811 -182.219613 
L 180.068031 -180.304179 
L 175.577953 -175.515596 
L 171.087874 -170.727012 
L 166.597795 -170.727012 
L 162.107717 -170.727012 
L 157.617638 -163.065279 
L 153.127559 -156.361262 
L 148.63748 -151.572678 
L 144.147402 -141.995511 
L 139.657323 -134.333778 
L 135.167244 -127.629761 
L 130.677165 -122.841177 
L 126.187087 -118.052594 
L 121.697008 -115.179444 
L 117.206929 -113.26401 
L 112.71685 -110.39086 
L 108.226772 -108.475427 
L 103.736693 -104.64456 
L 99.246614 -101.77141 
L 94.756535 -98.89826 
L 90.266457 -96.02511 
L 85.776378 -95.067393 
L 81.286299 -94.109676 
L 76.79622 -93.151959 
L 72.306142 -92.194243 
L 67.816063 -91.236526 
L 63.325984 -90.278809 
z
" style="stroke: #e6ecef"/>
    </defs>
    <g clip-path="url(#p8466a41534)">
     <use xlink:href="#m693f50692b" x="0" y="258.06061" style="fill: #e6ecef; stroke: #e6ecef"/>
    </g>
   </g>
   <g id="matplotlib.axis_1">
    <g id="xtick_1">
     <g id="line2d_1">
      <path d="M 108.226772 198.393449 
L 108.226772 30.614173 
" clip-path="url(#p8466a41534)" style="fill: none; stroke: #e5ebef; stroke-opacity: 0.6; stroke-width: 0.8; stroke-linecap: round"/>
     </g>
     <g id="text_1">
      <text style="font-size: 8.576px; font-family: 'Arial', 'DejaVu Sans', 'Liberation Sans', 'Bitstream Vera Sans', sans-serif; text-anchor: middle; fill: #262626" x="108.226772" y="211.531989" transform="rotate(-0 108.226772 211.531989)">Nov 05</text>
     </g>
    </g>
    <g id="xtick_2">
     <g id="line2d_2">
      <path d="M 180.068031 198.393449 
L 180.068031 30.614173 
" clip-path="url(#p8466a41534)" style="fill: none; stroke: #e5ebef; stroke-opacity: 0.6; stroke-width: 0.8; stroke-linecap: round"/>
     </g>
     <g id="text_2">
      <text style="font-size: 8.576px; font-family: 'Arial', 'DejaVu Sans', 'Liberation Sans', 'Bitstream Vera Sans', sans-serif; text-anchor: middle; fill: #262626" x="180.068031" y="211.531989" transform="rotate(-0 180.068031 211.531989)">Nov 07</text>
     </g>
    </g>
    <g id="xtick_3">
     <g id="line2d_3">
      <path d="M 251.909291 198.393449 
L 251.909291 30.614173 
" clip-path="url(#p8466a41534)" style="fill: none; stroke: #e5ebef; stroke-opacity: 0.6; stroke-width: 0.8; stroke-linecap: round"/>
     </g>
     <g id="text_3">
      <text style="font-size: 8.576px; font-family: 'Arial', 'DejaVu Sans', 'Liberation Sans', 'Bitstream Vera Sans', sans-serif; text-anchor: middle; fill: #262626" x="251.909291" y="211.531989" transform="rotate(-0 251.909291 211.531989)">Nov 09</text>
     </g>
    </g>
    <g id="xtick_4">
     <g id="line2d_4">
      <path d="M 323.750551 198.393449 
L 323.750551 30.614173 
" clip-path="url(#p8466a41534)" style="fill: none; stroke: #e5ebef; stroke-opacity: 0.6; stroke-width: 0.8; stroke-linecap: round"/>
     </g>
     <g id="text_4">
      <text style="font-size: 8.576px; font-family: 'Arial', 'DejaVu Sans', 'Liberation Sans', 'Bitstream Vera Sans', sans-serif; text-anchor: middle; fill: #262626" x="323.750551" y="211.531989" transform="rotate(-0 323.750551 211.531989)">Nov 11</text>
     </g>
    </g>
    <g id="text_5">
     <text style="font-size: 9.38px; font-family: 'Arial', 'DejaVu Sans', 'Liberation Sans', 'Bitstream Vera Sans', sans-serif; text-anchor: middle; fill: #262626" x="198.028346" y="223.950497" transform="rotate(-0 198.028346 223.950497)">Timestamp</text>
    </g>
   </g>
   <g id="matplotlib.axis_2">
    <g id="ytick_1">
     <g id="line2d_5">
      <path d="M 49.855748 49.024929 
L 346.200945 49.024929 
" clip-path="url(#p8466a41534)" style="fill: none; stroke: #e5ebef; stroke-opacity: 0.6; stroke-width: 0.8; stroke-linecap: round"/>
     </g>
     <g id="text_6">
      <text style="font-size: 8.576px; font-family: 'Arial', 'DejaVu Sans', 'Liberation Sans', 'Bitstream Vera Sans', sans-serif; text-anchor: end; fill: #262626" x="42.855748" y="52.094199" transform="rotate(-0 42.855748 52.094199)">880</text>
     </g>
    </g>
    <g id="ytick_2">
     <g id="line2d_6">
      <path d="M 49.855748 68.179263 
L 346.200945 68.179263 
" clip-path="url(#p8466a41534)" style="fill: none; stroke: #e5ebef; stroke-opacity: 0.6; stroke-width: 0.8; stroke-linecap: round"/>
     </g>
     <g id="text_7">
      <text style="font-size: 8.576px; font-family: 'Arial', 'DejaVu Sans', 'Liberation Sans', 'Bitstream Vera Sans', sans-serif; text-anchor: end; fill: #262626" x="42.855748" y="71.248533" transform="rotate(-0 42.855748 71.248533)">900</text>
     </g>
    </g>
    <g id="ytick_3">
     <g id="line2d_7">
      <path d="M 49.855748 87.333597 
L 346.200945 87.333597 
" clip-path="url(#p8466a41534)" style="fill: none; stroke: #e5ebef; stroke-opacity: 0.6; stroke-width: 0.8; stroke-linecap: round"/>
     </g>
     <g id="text_8">
      <text style="font-size: 8.576px; font-family: 'Arial', 'DejaVu Sans', 'Liberation Sans', 'Bitstream Vera Sans', sans-serif; text-anchor: end; fill: #262626" x="42.855748" y="90.402867" transform="rotate(-0 42.855748 90.402867)">920</text>
     </g>
    </g>
    <g id="ytick_4">
     <g id="line2d_8">
      <path d="M 49.855748 106.487932 
L 346.200945 106.487932 
" clip-path="url(#p8466a41534)" style="fill: none; stroke: #e5ebef; stroke-opacity: 0.6; stroke-width: 0.8; stroke-linecap: round"/>
     </g>
     <g id="text_9">
      <text style="font-size: 8.576px; font-family: 'Arial', 'DejaVu Sans', 'Liberation Sans', 'Bitstream Vera Sans', sans-serif; text-anchor: end; fill: #262626" x="42.855748" y="109.557202" transform="rotate(-0 42.855748 109.557202)">940</text>
     </g>
    </g>
    <g id="ytick_5">
     <g id="line2d_9">
      <path d="M 49.855748 125.642266 
L 346.200945 125.642266 
" clip-path="url(#p8466a41534)" style="fill: none; stroke: #e5ebef; stroke-opacity: 0.6; stroke-width: 0.8; stroke-linecap: round"/>
     </g>
     <g id="text_10">
      <text style="font-size: 8.576px; font-family: 'Arial', 'DejaVu Sans', 'Liberation Sans', 'Bitstream Vera Sans', sans-serif; text-anchor: end; fill: #262626" x="42.855748" y="128.711536" transform="rotate(-0 42.855748 128.711536)">960</text>
     </g>
    </g>
    <g id="ytick_6">
     <g id="line2d_10">
      <path d="M 49.855748 144.7966 
L 346.200945 144.7966 
" clip-path="url(#p8466a41534)" style="fill: none; stroke: #e5ebef; stroke-opacity: 0.6; stroke-width: 0.8; stroke-linecap: round"/>
     </g>
     <g id="text_11">
      <text style="font-size: 8.576px; font-family: 'Arial', 'DejaVu Sans', 'Liberation Sans', 'Bitstream Vera Sans', sans-serif; text-anchor: end; fill: #262626" x="42.855748" y="147.86587" transform="rotate(-0 42.855748 147.86587)">980</text>
     </g>
    </g>
    <g id="ytick_7">
     <g id="line2d_11">
      <path d="M 49.855748 163.950934 
L 346.200945 163.950934 
" clip-path="url(#p8466a41534)" style="fill: none; stroke: #e5ebef; stroke-opacity: 0.6; stroke-width: 0.8; stroke-linecap: round"/>
     </g>
     <g id="text_12">
      <text style="font-size: 8.576px; font-family: 'Arial', 'DejaVu Sans', 'Liberation Sans', 'Bitstream Vera Sans', sans-serif; text-anchor: end; fill: #262626" x="42.855748" y="167.020204" transform="rotate(-0 42.855748 167.020204)">1000</text>
     </g>
    </g>
    <g id="ytick_8">
     <g id="line2d_12">
      <path d="M 49.855748 183.105268 
L 346.200945 183.105268 
" clip-path="url(#p8466a41534)" style="fill: none; stroke: #e5ebef; stroke-opacity: 0.6; stroke-width: 0.8; stroke-linecap: round"/>
     </g>
     <g id="text_13">
      <text style="font-size: 8.576px; font-family: 'Arial', 'DejaVu Sans', 'Liberation Sans', 'Bitstream Vera Sans', sans-serif; text-anchor: end; fill: #262626" x="42.855748" y="186.174538" transform="rotate(-0 42.855748 186.174538)">1020</text>
     </g>
    </g>
    <g id="text_14">
     <text style="font-size: 9.38px; font-family: 'Arial', 'DejaVu Sans', 'Liberation Sans', 'Bitstream Vera Sans', sans-serif; text-anchor: middle; fill: #262626" x="17.805311" y="114.503811" transform="rotate(-90 17.805311 114.503811)">Pressure (hPa)</text>
    </g>
   </g>
   <g id="FillBetweenPolyCollection_2">
    <defs>
     <path id="md3dc8fca1b" d="M 63.325984 -85.693029 
L 63.325984 -132.190869 
L 67.816063 -129.655577 
L 72.306142 -127.011238 
L 76.79622 -128.600338 
L 81.286299 -133.740528 
L 85.776378 -130.853081 
L 90.266457 -128.928083 
L 94.756535 -130.973371 
L 99.246614 -132.771633 
L 103.736693 -136.87782 
L 108.226772 -137.269172 
L 112.71685 -136.750287 
L 117.206929 -136.719024 
L 121.697008 -136.64381 
L 126.187087 -134.853331 
L 130.677165 -134.491105 
L 135.167244 -137.53914 
L 139.657323 -136.575028 
L 144.147402 -139.424633 
L 148.63748 -139.649686 
L 153.127559 -139.408547 
L 157.617638 -139.150305 
L 162.107717 -139.306294 
L 166.597795 -139.936748 
L 171.087874 -139.616683 
L 175.577953 -139.491678 
L 180.068031 -138.856042 
L 184.55811 -139.522359 
L 189.048189 -140.215414 
L 193.538268 -140.846811 
L 198.028346 -138.880764 
L 202.518425 -137.795639 
L 207.008504 -137.04835 
L 211.498583 -136.551936 
L 215.988661 -135.020397 
L 220.47874 -135.599106 
L 224.968819 -134.988623 
L 229.458898 -133.950032 
L 233.948976 -134.633564 
L 238.439055 -132.91814 
L 242.929134 -129.823198 
L 247.419213 -129.334216 
L 251.909291 -128.802501 
L 256.39937 -129.722427 
L 260.889449 -131.145038 
L 265.379528 -129.906575 
L 269.869606 -130.11628 
L 274.359685 -129.781021 
L 278.849764 -129.594699 
L 283.339843 -132.311417 
L 287.829921 -130.506507 
L 292.32 -130.420055 
L 296.810079 -128.550183 
L 301.300157 -128.654131 
L 305.790236 -127.22578 
L 310.280315 -126.851386 
L 314.770394 -123.210176 
L 319.260472 -126.567207 
L 323.750551 -127.262075 
L 328.24063 -125.515465 
L 332.730709 -122.422083 
L 332.730709 -75.924243 
L 332.730709 -75.924243 
L 328.24063 -79.017625 
L 323.750551 -80.764235 
L 319.260472 -80.069367 
L 314.770394 -76.712336 
L 310.280315 -80.353546 
L 305.790236 -80.72794 
L 301.300157 -82.156291 
L 296.810079 -82.052343 
L 292.32 -83.922215 
L 287.829921 -84.008666 
L 283.339843 -85.813577 
L 278.849764 -83.096859 
L 274.359685 -83.283181 
L 269.869606 -83.61844 
L 265.379528 -83.408735 
L 260.889449 -84.647198 
L 256.39937 -83.224587 
L 251.909291 -82.304661 
L 247.419213 -82.836376 
L 242.929134 -83.325358 
L 238.439055 -86.4203 
L 233.948976 -88.135724 
L 229.458898 -87.452192 
L 224.968819 -88.490782 
L 220.47874 -89.101266 
L 215.988661 -88.522557 
L 211.498583 -90.054096 
L 207.008504 -90.55051 
L 202.518425 -91.297799 
L 198.028346 -92.382924 
L 193.538268 -94.348971 
L 189.048189 -93.717574 
L 184.55811 -93.024519 
L 180.068031 -92.358202 
L 175.577953 -92.993838 
L 171.087874 -93.118843 
L 166.597795 -93.438908 
L 162.107717 -92.808454 
L 157.617638 -92.652464 
L 153.127559 -92.910706 
L 148.63748 -93.151846 
L 144.147402 -92.926793 
L 139.657323 -90.077188 
L 135.167244 -91.0413 
L 130.677165 -87.993264 
L 126.187087 -88.35549 
L 121.697008 -90.14597 
L 117.206929 -90.221184 
L 112.71685 -90.252447 
L 108.226772 -90.771332 
L 103.736693 -90.37998 
L 99.246614 -86.273793 
L 94.756535 -84.47553 
L 90.266457 -82.430242 
L 85.776378 -84.35524 
L 81.286299 -87.242687 
L 76.79622 -82.102498 
L 72.306142 -80.513398 
L 67.816063 -83.157736 
L 63.325984 -85.693029 
z
"/>
    </defs>
    <g clip-path="url(#p8466a41534)">
     <use xlink:href="#md3dc8fca1b" x="0" y="258.06061" style="fill: #7c8894; fill-opacity: 0.12"/>
    </g>
   </g>
   <g id="FillBetweenPolyCollection_3">
    <defs>
     <path id="m499113468d" d="M 63.325984 -70.954607 
L 63.325984 -120.25913 
L 67.816063 -119.762443 
L 72.306142 -116.597956 
L 76.79622 -122.740986 
L 81.286299 -127.311184 
L 85.776378 -126.038808 
L 90.266457 -129.949815 
L 94.756535 -132.299331 
L 99.246614 -130.977853 
L 103.736693 -132.800344 
L 108.226772 -137.821926 
L 112.71685 -139.874318 
L 117.206929 -143.3983 
L 121.697008 -145.620619 
L 126.187087 -143.298752 
L 130.677165 -153.676802 
L 135.167244 -164.830777 
L 139.657323 -174.183713 
L 144.147402 -179.340676 
L 148.63748 -180.50158 
L 153.127559 -189.088705 
L 157.617638 -192.854863 
L 162.107717 -192.954937 
L 166.597795 -190.574674 
L 171.087874 -196.157536 
L 175.577953 -205.502989 
L 180.068031 -211.579206 
L 184.55811 -216.477158 
L 189.048189 -218.834799 
L 193.538268 -217.413422 
L 198.028346 -214.60954 
L 202.518425 -218.16649 
L 207.008504 -219.820106 
L 211.498583 -217.354441 
L 215.988661 -215.345539 
L 220.47874 -209.739822 
L 224.968819 -204.110314 
L 229.458898 -191.507723 
L 233.948976 -175.436858 
L 238.439055 -165.878922 
L 242.929134 -168.233173 
L 247.419213 -176.214827 
L 251.909291 -172.797116 
L 256.39937 -169.135182 
L 260.889449 -170.070219 
L 265.379528 -171.840276 
L 269.869606 -176.261123 
L 274.359685 -178.437614 
L 278.849764 -167.257978 
L 283.339843 -157.618966 
L 287.829921 -161.026507 
L 292.32 -154.594946 
L 296.810079 -148.676672 
L 301.300157 -153.723566 
L 305.790236 -152.721541 
L 310.280315 -148.366923 
L 314.770394 -145.179405 
L 319.260472 -143.092817 
L 323.750551 -137.456236 
L 328.24063 -132.722658 
L 332.730709 -134.953862 
L 332.730709 -85.649339 
L 332.730709 -85.649339 
L 328.24063 -83.418135 
L 323.750551 -88.151713 
L 319.260472 -93.788294 
L 314.770394 -95.874882 
L 310.280315 -99.0624 
L 305.790236 -103.417018 
L 301.300157 -104.419043 
L 296.810079 -99.372149 
L 292.32 -105.290422 
L 287.829921 -111.721983 
L 283.339843 -108.314443 
L 278.849764 -117.953455 
L 274.359685 -129.133091 
L 269.869606 -126.9566 
L 265.379528 -122.535753 
L 260.889449 -120.765696 
L 256.39937 -119.830659 
L 251.909291 -123.492593 
L 247.419213 -126.910304 
L 242.929134 -118.92865 
L 238.439055 -116.574399 
L 233.948976 -126.132335 
L 229.458898 -142.2032 
L 224.968819 -154.80579 
L 220.47874 -160.435299 
L 215.988661 -166.041016 
L 211.498583 -168.049918 
L 207.008504 -170.515583 
L 202.518425 -168.861967 
L 198.028346 -165.305017 
L 193.538268 -168.108899 
L 189.048189 -169.530276 
L 184.55811 -167.172635 
L 180.068031 -162.274683 
L 175.577953 -156.198466 
L 171.087874 -146.853012 
L 166.597795 -141.270151 
L 162.107717 -143.650413 
L 157.617638 -143.55034 
L 153.127559 -139.784182 
L 148.63748 -131.197057 
L 144.147402 -130.036153 
L 139.657323 -124.879189 
L 135.167244 -115.526254 
L 130.677165 -104.372279 
L 126.187087 -93.994229 
L 121.697008 -96.316096 
L 117.206929 -94.093777 
L 112.71685 -90.569795 
L 108.226772 -88.517403 
L 103.736693 -83.495821 
L 99.246614 -81.67333 
L 94.756535 -82.994808 
L 90.266457 -80.645292 
L 85.776378 -76.734285 
L 81.286299 -78.006661 
L 76.79622 -73.436463 
L 72.306142 -67.293492 
L 67.816063 -70.457978 
L 63.325984 -70.954607 
z
"/>
    </defs>
    <g clip-path="url(#p8466a41534)">
     <use xlink:href="#m499113468d" x="0" y="258.06061" style="fill: #2e6f95; fill-opacity: 0.12"/>
    </g>
   </g>
   <g id="FillBetweenPolyCollection_4">
    <defs>
     <path id="mf12df0c246" d="M 63.325984 -79.559151 
L 63.325984 -128.863674 
L 67.816063 -130.294579 
L 72.306142 -130.430661 
L 76.79622 -130.149086 
L 81.286299 -130.584221 
L 85.776378 -130.634258 
L 90.266457 -134.855308 
L 94.756535 -136.970947 
L 99.246614 -133.680491 
L 103.736693 -130.988258 
L 108.226772 -132.83641 
L 112.71685 -137.411284 
L 117.206929 -139.49758 
L 121.697008 -140.012329 
L 126.187087 -139.311461 
L 130.677165 -137.604125 
L 135.167244 -137.70531 
L 139.657323 -140.230423 
L 144.147402 -144.919809 
L 148.63748 -151.767156 
L 153.127559 -156.41656 
L 157.617638 -157.376147 
L 162.107717 -159.076117 
L 166.597795 -160.488668 
L 171.087874 -164.993514 
L 175.577953 -171.122456 
L 180.068031 -174.284605 
L 184.55811 -174.528944 
L 189.048189 -173.713973 
L 193.538268 -173.943523 
L 198.028346 -175.435396 
L 202.518425 -176.20413 
L 207.008504 -176.451567 
L 211.498583 -177.346387 
L 215.988661 -178.578898 
L 220.47874 -178.020074 
L 224.968819 -176.391126 
L 229.458898 -165.028703 
L 233.948976 -148.587354 
L 238.439055 -142.893429 
L 242.929134 -145.437539 
L 247.419213 -146.12128 
L 251.909291 -143.809409 
L 256.39937 -144.754734 
L 260.889449 -145.527267 
L 265.379528 -143.829868 
L 269.869606 -143.017703 
L 274.359685 -147.73807 
L 278.849764 -150.643312 
L 283.339843 -143.689227 
L 287.829921 -136.225771 
L 292.32 -135.810511 
L 296.810079 -136.916526 
L 301.300157 -139.25061 
L 305.790236 -142.241312 
L 310.280315 -140.795618 
L 314.770394 -138.630643 
L 319.260472 -135.818168 
L 323.750551 -133.699723 
L 328.24063 -134.775927 
L 332.730709 -132.642926 
L 332.730709 -83.338403 
L 332.730709 -83.338403 
L 328.24063 -85.471404 
L 323.750551 -84.3952 
L 319.260472 -86.513645 
L 314.770394 -89.32612 
L 310.280315 -91.491095 
L 305.790236 -92.936789 
L 301.300157 -89.946087 
L 296.810079 -87.612003 
L 292.32 -86.505988 
L 287.829921 -86.921248 
L 283.339843 -94.384704 
L 278.849764 -101.338789 
L 274.359685 -98.433547 
L 269.869606 -93.71318 
L 265.379528 -94.525345 
L 260.889449 -96.222744 
L 256.39937 -95.450211 
L 251.909291 -94.504886 
L 247.419213 -96.816757 
L 242.929134 -96.133016 
L 238.439055 -93.588906 
L 233.948976 -99.282831 
L 229.458898 -115.72418 
L 224.968819 -127.086603 
L 220.47874 -128.715551 
L 215.988661 -129.274375 
L 211.498583 -128.041864 
L 207.008504 -127.147044 
L 202.518425 -126.899607 
L 198.028346 -126.130873 
L 193.538268 -124.639 
L 189.048189 -124.40945 
L 184.55811 -125.224421 
L 180.068031 -124.980082 
L 175.577953 -121.817933 
L 171.087874 -115.688991 
L 166.597795 -111.184145 
L 162.107717 -109.771594 
L 157.617638 -108.071624 
L 153.127559 -107.112037 
L 148.63748 -102.462633 
L 144.147402 -95.615286 
L 139.657323 -90.925899 
L 135.167244 -88.400787 
L 130.677165 -88.299602 
L 126.187087 -90.006938 
L 121.697008 -90.707806 
L 117.206929 -90.193057 
L 112.71685 -88.106761 
L 108.226772 -83.531887 
L 103.736693 -81.683735 
L 99.246614 -84.375968 
L 94.756535 -87.666424 
L 90.266457 -85.550785 
L 85.776378 -81.329735 
L 81.286299 -81.279698 
L 76.79622 -80.844563 
L 72.306142 -81.126138 
L 67.816063 -80.990056 
L 63.325984 -79.559151 
z
"/>
    </defs>
    <g clip-path="url(#p8466a41534)">
     <use xlink:href="#mf12df0c246" x="0" y="258.06061" style="fill: #4c8c68; fill-opacity: 0.12"/>
    </g>
   </g>
   <g id="line2d_13">
    <path d="M 63.325984 149.11866 
L 67.816063 151.653953 
L 72.306142 154.298291 
L 76.79622 152.709192 
L 81.286299 147.569002 
L 85.776378 150.456449 
L 90.266457 152.381447 
L 94.756535 150.336159 
L 99.246614 148.537897 
L 103.736693 144.431709 
L 108.226772 144.040358 
L 112.71685 144.559243 
L 117.206929 144.590506 
L 121.697008 144.66572 
L 126.187087 146.456199 
L 130.677165 146.818425 
L 135.167244 143.77039 
L 139.657323 144.734502 
L 144.147402 141.884896 
L 148.63748 141.659844 
L 153.127559 141.900983 
L 157.617638 142.159225 
L 162.107717 142.003236 
L 166.597795 141.372782 
L 171.087874 141.692847 
L 175.577953 141.817852 
L 180.068031 142.453487 
L 184.55811 141.787171 
L 189.048189 141.094115 
L 193.538268 140.462719 
L 198.028346 142.428766 
L 202.518425 143.513891 
L 207.008504 144.26118 
L 211.498583 144.757594 
L 215.988661 146.289133 
L 220.47874 145.710423 
L 224.968819 146.320907 
L 229.458898 147.359498 
L 233.948976 146.675966 
L 238.439055 148.391389 
L 242.929134 151.486331 
L 247.419213 151.975314 
L 251.909291 152.507029 
L 256.39937 151.587103 
L 260.889449 150.164492 
L 265.379528 151.402955 
L 269.869606 151.19325 
L 274.359685 151.528509 
L 278.849764 151.71483 
L 283.339843 148.998113 
L 287.829921 150.803023 
L 292.32 150.889475 
L 296.810079 152.759347 
L 301.300157 152.655399 
L 305.790236 154.083749 
L 310.280315 154.458144 
L 314.770394 158.099354 
L 319.260472 154.742323 
L 323.750551 154.047455 
L 328.24063 155.794064 
L 332.730709 158.887447 
" clip-path="url(#p8466a41534)" style="fill: none; stroke: #7c8894; stroke-width: 1.2; stroke-linecap: round"/>
   </g>
   <g id="line2d_14">
    <path d="M 63.325984 162.453741 
L 67.816063 162.950428 
L 72.306142 166.114915 
L 76.79622 159.971885 
L 81.286299 155.401687 
L 85.776378 156.674064 
L 90.266457 152.763056 
L 94.756535 150.41354 
L 99.246614 151.735019 
L 103.736693 149.912528 
L 108.226772 144.890945 
L 112.71685 142.838553 
L 117.206929 139.314572 
L 121.697008 137.092253 
L 126.187087 139.414119 
L 130.677165 129.036069 
L 135.167244 117.882095 
L 139.657323 108.529159 
L 144.147402 103.372196 
L 148.63748 102.211292 
L 153.127559 93.624166 
L 157.617638 89.858009 
L 162.107717 89.757935 
L 166.597795 92.138197 
L 171.087874 86.555336 
L 175.577953 77.209882 
L 180.068031 71.133665 
L 184.55811 66.235713 
L 189.048189 63.878073 
L 193.538268 65.29945 
L 198.028346 68.103331 
L 202.518425 64.546382 
L 207.008504 62.892765 
L 211.498583 65.35843 
L 215.988661 67.367332 
L 220.47874 72.973049 
L 224.968819 78.602558 
L 229.458898 91.205149 
L 233.948976 107.276014 
L 238.439055 116.833949 
L 242.929134 114.479699 
L 247.419213 106.498044 
L 251.909291 109.915755 
L 256.39937 113.577689 
L 260.889449 112.642653 
L 265.379528 110.872595 
L 269.869606 106.451748 
L 274.359685 104.275258 
L 278.849764 115.454893 
L 283.339843 125.093905 
L 287.829921 121.686365 
L 292.32 128.117926 
L 296.810079 134.036199 
L 301.300157 128.989305 
L 305.790236 129.99133 
L 310.280315 134.345949 
L 314.770394 137.533466 
L 319.260472 139.620054 
L 323.750551 145.256636 
L 328.24063 149.990214 
L 332.730709 147.75901 
" clip-path="url(#p8466a41534)" style="fill: none; stroke: #2e6f95; stroke-width: 1.2; stroke-linecap: round"/>
   </g>
   <g id="line2d_15">
    <path d="M 63.325984 153.849197 
L 67.816063 152.418292 
L 72.306142 152.28221 
L 76.79622 152.563785 
L 81.286299 152.12865 
L 85.776378 152.078613 
L 90.266457 147.857564 
L 94.756535 145.741924 
L 99.246614 149.03238 
L 103.736693 151.724614 
L 108.226772 149.876461 
L 112.71685 145.301587 
L 117.206929 143.215291 
L 121.697008 142.700542 
L 126.187087 143.40141 
L 130.677165 145.108746 
L 135.167244 145.007561 
L 139.657323 142.482449 
L 144.147402 137.793062 
L 148.63748 130.945715 
L 153.127559 126.296312 
L 157.617638 125.336724 
L 162.107717 123.636754 
L 166.597795 122.224204 
L 171.087874 117.719358 
L 175.577953 111.590415 
L 180.068031 108.428266 
L 184.55811 108.183927 
L 189.048189 108.998898 
L 193.538268 108.769348 
L 198.028346 107.277475 
L 202.518425 106.508741 
L 207.008504 106.261304 
L 211.498583 105.366484 
L 215.988661 104.133973 
L 220.47874 104.692797 
L 224.968819 106.321746 
L 229.458898 117.684168 
L 233.948976 134.125517 
L 238.439055 139.819442 
L 242.929134 137.275332 
L 247.419213 136.591591 
L 251.909291 138.903462 
L 256.39937 137.958138 
L 260.889449 137.185604 
L 265.379528 138.883003 
L 269.869606 139.695168 
L 274.359685 134.974801 
L 278.849764 132.069559 
L 283.339843 139.023644 
L 287.829921 146.4871 
L 292.32 146.90236 
L 296.810079 145.796345 
L 301.300157 143.462261 
L 305.790236 140.471559 
L 310.280315 141.917253 
L 314.770394 144.082228 
L 319.260472 146.894703 
L 323.750551 149.013148 
L 328.24063 147.936945 
L 332.730709 150.069945 
" clip-path="url(#p8466a41534)" style="fill: none; stroke: #4c8c68; stroke-width: 1.2; stroke-linecap: round"/>
   </g>
   <g id="patch_3">
    <path d="M 49.855748 198.393449 
L 49.855748 30.614173 
" style="fill: none; stroke: #cccccc; stroke-width: 0.8; stroke-linejoin: miter; stroke-linecap: square"/>
   </g>
   <g id="patch_4">
    <path d="M 346.200945 198.393449 
L 346.200945 30.614173 
" style="fill: none; stroke: #cccccc; stroke-width: 0.8; stroke-linejoin: miter; stroke-linecap: square"/>
   </g>
   <g id="patch_5">
    <path d="M 49.855748 198.393449 
L 346.200945 198.393449 
" style="fill: none; stroke: #cccccc; stroke-width: 0.8; stroke-linejoin: miter; stroke-linecap: square"/>
   </g>
   <g id="patch_6">
    <path d="M 49.855748 30.614173 
L 346.200945 30.614173 
" style="fill: none; stroke: #cccccc; stroke-width: 0.8; stroke-linejoin: miter; stroke-linecap: square"/>
   </g>
   <g id="line2d_16">
    <path d="M 63.325984 166.824084 
L 67.816063 165.866367 
L 72.306142 164.90865 
L 76.79622 163.472075 
L 81.286299 161.556642 
L 85.776378 160.120067 
L 90.266457 158.204633 
L 94.756535 155.810342 
L 99.246614 152.937192 
L 103.736693 150.5429 
L 108.226772 147.190891 
L 112.71685 143.838883 
L 117.206929 140.008016 
L 121.697008 136.656008 
L 126.187087 132.825141 
L 130.677165 128.036557 
L 135.167244 123.247974 
L 139.657323 116.543957 
L 144.147402 108.882223 
L 148.63748 104.09364 
L 153.127559 99.305056 
L 157.617638 93.558756 
L 162.107717 87.333597 
L 166.597795 83.981589 
L 171.087874 80.150722 
L 175.577953 77.75643 
L 180.068031 75.362139 
L 184.55811 74.404422 
L 189.048189 72.967847 
L 193.538268 68.179263 
L 198.028346 63.39068 
L 202.518425 62.432963 
L 207.008504 60.996388 
L 211.498583 67.221547 
L 215.988661 72.967847 
L 220.47874 87.333597 
L 224.968819 101.699348 
L 229.458898 104.09364 
L 233.948976 106.487932 
L 238.439055 108.882223 
L 242.929134 111.276515 
L 247.419213 111.276515 
L 251.909291 111.276515 
L 256.39937 111.276515 
L 260.889449 111.276515 
L 265.379528 112.71309 
L 269.869606 113.670807 
L 274.359685 115.107382 
L 278.849764 116.065099 
L 283.339843 118.938249 
L 287.829921 120.853682 
L 292.32 123.726832 
L 296.810079 125.642266 
L 301.300157 128.515416 
L 305.790236 130.430849 
L 310.280315 135.219433 
L 314.770394 140.008016 
L 319.260472 145.275458 
L 323.750551 149.585183 
L 328.24063 156.768058 
L 332.730709 163.472075 
" clip-path="url(#p8466a41534)" style="fill: none; stroke: #1f2f3b; stroke-width: 1.4; stroke-linecap: round"/>
   </g>
   <g id="text_15">
    <text style="font-size: 6.834px; font-family: 'Arial', 'DejaVu Sans', 'Liberation Sans', 'Bitstream Vera Sans', sans-serif; text-anchor: end; fill: #7c8894" x="340.274041" y="45.572579" transform="rotate(-0 340.274041 45.572579)">Metadata baseline MAE = 35.25</text>
   </g>
   <g id="text_16">
    <text style="font-size: 6.834px; font-family: 'Arial', 'DejaVu Sans', 'Liberation Sans', 'Bitstream Vera Sans', sans-serif; text-anchor: end; fill: #2e6f95" x="340.274041" y="57.400417" transform="rotate(-0 340.274041 57.400417)">Image-only (ResNet18) MAE = 4.85</text>
   </g>
   <g id="text_17">
    <text style="font-size: 6.834px; font-family: 'Arial', 'DejaVu Sans', 'Liberation Sans', 'Bitstream Vera Sans', sans-serif; text-anchor: end; fill: #4c8c68" x="340.274041" y="69.144967" transform="rotate(-0 340.274041 69.144967)">Multimodal (ResNet18) MAE = 21.42</text>
   </g>
   <g id="legend_1">
    <g id="patch_7">
     <path d="M 52.5472 236.42131 
L 61.2472 236.42131 
L 61.2472 232.36131 
L 52.5472 232.36131 
z
" style="fill: #e6ecef; stroke: #e6ecef; stroke-linejoin: miter"/>
    </g>
    <g id="text_18">
     <text style="font-size: 7.772px; font-family: 'Arial', 'DejaVu Sans', 'Liberation Sans', 'Bitstream Vera Sans', sans-serif; text-anchor: start; fill: #262626" x="63.5672" y="236.42131" transform="rotate(-0 63.5672 236.42131)">Target disagreement range</text>
    </g>
    <g id="line2d_17">
     <path d="M 52.5472 244.874847 
L 56.8972 244.874847 
L 61.2472 244.874847 
" style="fill: none; stroke: #1f2f3b; stroke-width: 1.4; stroke-linecap: round"/>
    </g>
    <g id="text_19">
     <text style="font-size: 7.772px; font-family: 'Arial', 'DejaVu Sans', 'Liberation Sans', 'Bitstream Vera Sans', sans-serif; text-anchor: start; fill: #262626" x="63.5672" y="246.904847" transform="rotate(-0 63.5672 246.904847)">Consensus target</text>
    </g>
    <g id="line2d_18">
     <path d="M 159.053815 234.39131 
L 163.403815 234.39131 
L 167.753815 234.39131 
" style="fill: none; stroke: #7c8894; stroke-width: 1.2; stroke-linecap: round"/>
    </g>
    <g id="text_20">
     <text style="font-size: 7.772px; font-family: 'Arial', 'DejaVu Sans', 'Liberation Sans', 'Bitstream Vera Sans', sans-serif; text-anchor: start; fill: #262626" x="170.073815" y="236.42131" transform="rotate(-0 170.073815 236.42131)">Metadata baseline</text>
    </g>
    <g id="line2d_19">
     <path d="M 159.053815 244.783769 
L 163.403815 244.783769 
L 167.753815 244.783769 
" style="fill: none; stroke: #2e6f95; stroke-width: 1.2; stroke-linecap: round"/>
    </g>
    <g id="text_21">
     <text style="font-size: 7.772px; font-family: 'Arial', 'DejaVu Sans', 'Liberation Sans', 'Bitstream Vera Sans', sans-serif; text-anchor: start; fill: #262626" x="170.073815" y="246.813769" transform="rotate(-0 170.073815 246.813769)">Image-only (ResNet18)</text>
    </g>
    <g id="line2d_20">
     <path d="M 253.020793 234.39131 
L 257.370793 234.39131 
L 261.720793 234.39131 
" style="fill: none; stroke: #4c8c68; stroke-width: 1.2; stroke-linecap: round"/>
    </g>
    <g id="text_22">
     <text style="font-size: 7.772px; font-family: 'Arial', 'DejaVu Sans', 'Liberation Sans', 'Bitstream Vera Sans', sans-serif; text-anchor: start; fill: #262626" x="264.040793" y="236.42131" transform="rotate(-0 264.040793 236.42131)">Multimodal (ResNet18)</text>
    </g>
   </g>
  </g>
  <g id="text_23">
   <text style="font-weight: 700; font-size: 13.4px; font-family: 'Arial', 'DejaVu Sans', 'Liberation Sans', 'Bitstream Vera Sans', sans-serif; text-anchor: start; fill: #262626" x="7.2" y="16.954781" transform="rotate(-0 7.2 16.954781)">Forecast (+6 h) case study</text>
  </g>
 </g>
 <defs>
  <clipPath id="p8466a41534">
   <rect x="49.855748" y="30.614173" width="296.345197" height="167.779276"/>
  </clipPath>
 </defs>
</svg>
